<?xml version="1.0" encoding="utf-8"?>
<!-- Generator: Adobe Illustrator 19.1.0, SVG Export Plug-In . SVG Version: 6.00 Build 0)  -->
<svg
        version="1.1"
        id="Ebene_1"
        xmlns="http://www.w3.org/2000/svg"
        xmlns:xlink="http://www.w3.org/1999/xlink"
        x="0px"
        y="0px"
        viewBox="0 0 228.4 229.5"
        enable-background="new 0 0 228.4 229.5"
        xml:space="preserve"
      >
        <path
          fill="#FFFFFF"
          d="M45.7,71.2v88.5c0,36,28.4,66.7,63.1,69.6l1.6,0.1c1.2,0.1,2.4,0.1,3.7,0.1s2.4,0,3.7-0.1l1.6-0.1
	c34.7-2.9,63.1-33.6,63.1-69.6V71.2H45.7z M164.9,81.8l-45.4,40.2V81.8H164.9z M108.9,122.1L63.4,81.8h45.4V122.1z M119.5,162.2
	h52.5c-0.2,3.6-0.6,7.2-1.4,10.6h-51V162.2z M119.5,151.6V141H172v10.6H119.5z M126.2,130.3L172,89.7v40.6H126.2z M56.3,159.7v-70
	l52.5,46.5v82.5C79.9,215.9,56.3,190,56.3,159.7z M119.5,218.7v-35.3H167C158.6,202.6,140.4,216.6,119.5,218.7z"
        />
        <g>
          <polygon
            fill="#FFFFFF"
            points="154.2,10.7 166.5,10.7 166.5,53.2 177.1,53.2 177.1,10.7 189.4,10.7 189.4,0.1 154.2,0.1 	"
          />
          <polygon
            fill="#FFFFFF"
            points="61.6,53.1 92,53.1 92,42.5 72.2,42.5 72.2,31.3 87.4,31.3 87.4,20.7 72.2,20.7 72.2,10.7 92,10.7 
		92,0.1 61.6,0.1 	"
          />
          <polygon
            fill="#FFFFFF"
            points="228.4,10.7 228.4,0.1 197.9,0.1 197.9,53.1 228.4,53.1 228.4,42.5 208.6,42.5 208.6,31.3 
		223.8,31.3 223.8,20.7 208.6,20.7 208.6,10.7 	"
          />
          <polygon
            fill="#FFFFFF"
            points="38.6,0 24.5,15.5 10.7,0 0,0 0,53.2 10.6,53.2 10.6,16.2 24.4,31.7 38.6,16.1 38.6,53.2 49.2,53.2 
		49.2,0 	"
          />
          <path
            fill="#FFFFFF"
            d="M135.4,0c0,0-0.1,22.7,0,32.5c0,2.8-1.1,5.4-3.1,7.4c-2,2-4.7,3.1-7.6,3.1c-2.9,0-5.6-1.1-7.6-3.1
		c-2-2-3.1-4.6-3.1-7.4c0-9.8,0-32.5,0-32.5l-10.6,0c0,0,0,22.7,0,32.5c0,5.6,2.2,10.9,6.2,15c4,4,9.4,6.3,15.1,6.3
		c5.7,0,11.1-2.2,15.1-6.3c4-4,6.2-9.3,6.2-14.9c0-9.8,0-32.5,0-32.5L135.4,0z"
          />
        </g>
      </svg>
