<?xml version="1.0" encoding="iso-8859-1"?>
<!-- Generator: Adobe Illustrator 19.0.0, SVG Export Plug-In . SVG Version: 6.00 Build 0)  -->
<svg version="1.1" id="Capa_1" xmlns="http://www.w3.org/2000/svg" xmlns:xlink="http://www.w3.org/1999/xlink" x="0px" y="0px"
	 viewBox="0 0 512 512" style="enable-background:new 0 0 512 512;" xml:space="preserve">
<g>
	<g>
		<path fill = "#FFFFFF" d="M407,0H105C47.103,0,0,47.103,0,105v302c0,57.897,47.103,105,105,105h302c57.897,0,105-47.103,105-105V105
			C512,47.103,464.897,0,407,0z M482,407c0,41.355-33.645,75-75,75H105c-41.355,0-75-33.645-75-75V105c0-41.355,33.645-75,75-75h302
			c41.355,0,75,33.645,75,75V407z"/>
	</g>
</g>
<g>
	<g>
		<path fill = "#FFFFFF" d="M179,118.364V346h-35c-22.056,0-40,17.944-40,40c0,22.056,17.944,40,40,40h25c22.056,0,40-17.944,40-40V213.635
			l144-24.828V316h-35c-22.056,0-40,17.944-40,40c0,22.056,17.944,40,40,40h25c22.056,0,40-17.944,40-40V83.192L179,118.364z
			 M179,386c0,5.514-4.486,10-10,10h-25c-5.514,0-10-4.486-10-10c0-5.514,4.486-10,10-10h35V386z M353,356c0,5.514-4.486,10-10,10
			h-25c-5.514,0-10-4.486-10-10c0-5.514,4.486-10,10-10h35V356z M353,158.365l-144,24.828v-39.557l144-24.828V158.365z"/>
	</g>
</g>
<g>
</g>
<g>
</g>
<g>
</g>
<g>
</g>
<g>
</g>
<g>
</g>
<g>
</g>
<g>
</g>
<g>
</g>
<g>
</g>
<g>
</g>
<g>
</g>
<g>
</g>
<g>
</g>
<g>
</g>
</svg>
